<svg width="200" height="200" viewBox="0 0 200 200" fill="none" xmlns="http://www.w3.org/2000/svg">
  <path d="M71.558 16.335C84.337-5.445 115.825-5.445 128.603 16.335L129.067 17.126C134.963 27.173 145.709 33.378 157.358 33.46L158.276 33.466C183.527 33.643 199.271 60.912 186.798 82.869L186.345 83.666C180.591 93.795 180.591 106.205 186.345 116.334L186.798 117.131C199.271 139.088 183.527 166.357 158.276 166.534L157.358 166.54C145.709 166.622 134.963 172.827 129.067 182.874L128.603 183.665C115.825 205.445 84.337 205.445 71.558 183.665L71.094 182.874C65.199 172.827 54.452 166.622 42.803 166.54L41.886 166.534C16.635 166.357 0.891 139.088 13.363 117.131L13.816 116.334C19.57 106.205 19.57 93.795 13.816 83.666L13.363 82.869C0.891 60.912 16.635 33.643 41.886 33.466L42.803 33.46C54.452 33.378 65.199 27.173 71.094 17.126L71.558 16.335Z" fill="url(#paint0_linear_103_21)"/>
  <defs>
    <linearGradient id="paint0_linear_103_21" x1="100.081" y1="0" x2="100.081" y2="200" gradientUnits="userSpaceOnUse">
      <stop stop-color="#fddb00"/>
      <stop offset="1" stop-color="#ba1632"/>
    </linearGradient>
  </defs>
</svg>